<svg width="142" height="107" viewBox="0 0 142 107" fill="none" xmlns="http://www.w3.org/2000/svg">
<path d="M82.6257 23.8102L71.4604 8.63686C71.1774 8.2523 70.7883 7.95999 70.3416 7.79625C69.895 7.63251 69.4103 7.60457 68.948 7.71589L49.6659 12.3668L49.6428 12.371C49.6351 12.3729 49.6279 12.376 49.6202 12.3779L39.3637 14.852C39.0541 14.9267 38.7621 15.0621 38.5045 15.2504C38.2468 15.4387 38.0285 15.6763 37.8621 15.9496C37.6956 16.2229 37.5842 16.5265 37.5343 16.8431C37.4843 17.1598 37.4968 17.4832 37.571 17.795L41.5891 34.6937C41.6631 35.0056 41.7975 35.2997 41.9844 35.5592C42.1714 35.8188 42.4073 36.0387 42.6787 36.2063C42.9501 36.374 43.2516 36.4862 43.5661 36.5365C43.8805 36.5867 44.2018 36.5741 44.5114 36.4993L54.793 34.0191L54.7943 34.0188L54.7957 34.0185L81.2427 27.6383C81.6324 27.5443 81.9928 27.3544 82.2918 27.0857C82.5909 26.8171 82.8191 26.4779 82.9561 26.0987C83.0931 25.7194 83.1347 25.3119 83.077 24.9125C83.0193 24.5132 82.8643 24.1344 82.6257 23.8102ZM45.7402 31.1821L42.8512 19.0322L48.4157 17.6901L51.3068 29.8395L45.7402 31.1821ZM56.0223 28.7019L53.1312 16.5528L68.5194 12.8414L76.5467 23.7505L56.0223 28.7019ZM113.325 59.4862C113.078 58.4434 112.668 57.4469 112.11 56.5341C111.408 55.3859 109.914 55.0284 108.774 55.7363C108.503 55.9045 108.267 56.1248 108.081 56.3846C107.894 56.6445 107.761 56.9388 107.687 57.2507C107.613 57.5627 107.602 57.8861 107.652 58.2027C107.703 58.5192 107.815 58.8227 107.982 59.0956C108.27 59.5684 108.482 60.0845 108.61 60.6244C108.771 61.2923 108.799 61.9859 108.692 62.6647C108.585 63.3436 108.345 63.9944 107.986 64.5793C107.631 65.1662 107.164 65.6764 106.611 66.0802C106.059 66.484 105.433 66.7734 104.768 66.9316C104.105 67.0934 103.416 67.1211 102.742 67.013C102.068 66.9049 101.422 66.6632 100.842 66.3019C100.259 65.9438 99.7522 65.4727 99.3513 64.9159C98.9504 64.3592 98.6632 63.7279 98.5062 63.0586C98.3452 62.3909 98.3174 61.6978 98.4243 61.0192C98.5312 60.3407 98.7707 59.6902 99.129 59.1056C99.4845 58.5188 99.9519 58.0089 100.504 57.6053C101.057 57.2017 101.683 56.9125 102.347 56.7543C102.969 56.6002 103.505 56.2046 103.838 55.6539C104.172 55.1032 104.275 54.4422 104.126 53.815C103.977 53.1879 103.587 52.6456 103.043 52.3065C102.498 51.9675 101.842 51.8591 101.219 52.0052C98.6092 52.6341 96.3995 54.2488 94.9964 56.5513C93.5929 58.8548 93.1649 61.5703 93.791 64.1965C94.4154 66.8237 96.0186 69.0496 98.3049 70.463C99.9063 71.453 101.708 71.9618 103.541 71.9618C104.325 71.9618 105.115 71.8686 105.897 71.6802C108.506 71.0513 110.716 69.436 112.119 67.1322C113.523 64.8281 113.951 62.1121 113.325 59.4862ZM44.7177 76.0335L44.7174 76.0318C43.4247 70.6105 37.9938 67.2554 32.609 68.5533C27.2241 69.851 23.8922 75.3203 25.1811 80.7448C26.2826 85.3808 30.41 88.5071 34.9492 88.5071C35.7208 88.5071 36.5047 88.4166 37.287 88.228C42.6733 86.9292 46.0071 81.4589 44.7177 76.0335ZM36.1579 83.4789C33.3725 84.1505 30.5632 82.4137 29.8963 79.6075C29.2297 76.8013 30.9527 73.9724 33.7372 73.3016C34.1333 73.2059 34.5392 73.1574 34.9465 73.1574C37.2942 73.1574 39.4301 74.7732 40.0022 77.1705C40.6688 79.9775 38.9444 82.807 36.1579 83.4789ZM89.6435 39.2728C89.3316 37.9615 88.0232 37.154 86.7209 37.4669L74.9389 40.3086C74.3624 40.4488 73.8569 40.7968 73.5179 41.2869C73.179 41.777 73.0301 42.3751 73.0994 42.9683C73.1687 43.5615 73.4514 44.1085 73.894 44.506C74.3367 44.9034 74.9086 45.1238 75.5016 45.1254C75.6884 45.1254 75.8785 45.1032 76.0682 45.0577L87.8503 42.216C88.4756 42.0651 89.0158 41.6703 89.352 41.1184C89.6883 40.5664 89.7932 39.9026 89.6435 39.2728ZM71.1522 43.7326C70.8401 42.421 69.5323 41.6141 68.2296 41.9267L13.6428 55.0919C13.0175 55.2427 12.4773 55.6375 12.141 56.1895C11.8047 56.7414 11.6999 57.4053 11.8496 58.0351C11.9994 58.6649 12.3915 59.2089 12.9395 59.5476C13.4876 59.8863 14.1469 59.9918 14.7722 59.841L69.359 46.6758C69.6687 46.6012 69.9607 46.4658 70.2184 46.2775C70.4761 46.0892 70.6945 45.8516 70.861 45.5783C71.0275 45.3049 71.1389 45.0013 71.1889 44.6846C71.2389 44.3679 71.2264 44.0444 71.1522 43.7326ZM82.8227 50.6734C82.5108 49.3622 81.2027 48.5546 79.9001 48.8675L50.0025 56.0783C49.3854 56.2369 48.8549 56.6336 48.5258 57.1827C48.1967 57.7319 48.0954 58.3895 48.2437 59.0133C48.3921 59.6371 48.7782 60.177 49.3186 60.5165C49.859 60.856 50.5104 60.9676 51.1319 60.8274L81.0295 53.6167C82.3318 53.3024 83.1348 51.9847 82.8227 50.6734Z" fill="#788A66"/>
<path d="M140.405 63.0257C140.144 62.8423 139.849 62.7125 139.538 62.6438C139.227 62.5751 138.906 62.5687 138.593 62.6251C138.279 62.6814 137.98 62.7994 137.712 62.9723C137.444 63.1452 137.212 63.3696 137.03 63.6326L126.736 78.5061L115.425 76.8183C117.125 75.4505 118.594 73.7816 119.766 71.8587C122.322 67.6635 123.164 62.7455 122.169 57.9487L131.948 55.5888C132.258 55.5141 132.55 55.3788 132.807 55.1904C133.065 55.0021 133.283 54.7645 133.45 54.4912C133.616 54.2179 133.728 53.9142 133.778 53.5975C133.827 53.2809 133.815 52.9574 133.741 52.6456L130.99 41.0793C130.678 39.7683 129.369 38.9594 128.067 39.2735L124.471 40.1406L120.866 24.9826C119.773 20.3738 115.725 16.9912 111.02 16.7568L85.8444 15.5268L77.1263 3.67373C76.0731 2.24218 74.6249 1.15438 72.9621 0.545879C71.2994 -0.062625 69.4955 -0.164932 67.7754 0.251705L30.3462 9.27862C30.0365 9.35313 29.7444 9.48839 29.4866 9.67666C29.2289 9.86492 29.0105 10.1025 28.844 10.3758C28.6775 10.6492 28.5661 10.9529 28.5162 11.2696C28.4663 11.5863 28.4789 11.9098 28.5532 12.2216L34.738 38.2271L29.0127 39.6077L25.2133 23.6383V23.6372L23.7361 17.4226C23.4245 16.111 22.1156 15.3027 20.8138 15.6164C19.5117 15.9301 18.7088 17.2481 19.0203 18.5594L20.2789 23.8538L9.00258 44.4323L2.92523 45.8978C2.61555 45.9724 2.3235 46.1077 2.06577 46.2961C1.80803 46.4844 1.58967 46.722 1.42314 46.9953C1.25662 47.2686 1.14519 47.5723 1.09524 47.889C1.04529 48.2057 1.05779 48.5292 1.13202 48.841L5.86543 68.7435L2.27213 69.6101C1.64687 69.761 1.10672 70.1557 0.770447 70.7076C0.434173 71.2595 0.329311 71.9233 0.478919 72.553L3.22988 84.1226C3.35677 84.6559 3.65814 85.1306 4.08549 85.4705C4.51285 85.8103 5.04131 85.9955 5.58584 85.9962C5.7726 85.9962 5.96266 85.9742 6.15218 85.9285L16.6029 83.4094C18.1204 89.0298 22.0858 93.5431 27.1735 95.8544L16.6842 100.966L6.48024 97.3924C6.17954 97.287 5.86117 97.2423 5.54331 97.2609C5.22546 97.2794 4.91436 97.3609 4.62776 97.5006C4.34117 97.6402 4.08471 97.8354 3.87303 98.0749C3.66134 98.3144 3.49859 98.5936 3.39405 98.8964C3.28946 99.1993 3.24513 99.5199 3.26358 99.84C3.28204 100.16 3.36291 100.473 3.5016 100.762C3.64029 101.051 3.83407 101.309 4.07187 101.522C4.30968 101.735 4.58685 101.899 4.88757 102.004L16.0399 105.911C16.3406 106.016 16.659 106.061 16.9769 106.042C17.2948 106.024 17.606 105.942 17.8926 105.803L34.846 97.5408C34.8777 97.541 58.0511 97.5302 58.0511 97.5302C58.3694 97.5303 58.6847 97.4671 58.9788 97.3444C59.2729 97.2217 59.5402 97.0418 59.7652 96.8151L68.8409 87.675L83.5824 91.7963C84.1518 91.9555 84.7592 91.8999 85.2908 91.6399L107.807 80.6185L127.512 83.5581C127.958 83.6248 128.414 83.5647 128.828 83.3847C129.242 83.2047 129.598 82.9119 129.856 82.5392L141.008 66.4249C141.376 65.8936 141.519 65.237 141.405 64.5996C141.292 63.9621 140.933 63.396 140.405 63.0257ZM126.839 44.5915L128.461 51.4095L120.582 53.3111C119.433 50.9841 117.824 48.9182 115.854 47.2404L126.839 44.5915ZM118.166 34.5854L110.927 36.3302L111.126 33.5257C111.162 32.9871 111.369 32.4743 111.716 32.0628C112.063 31.6513 112.532 31.3626 113.054 31.2391L117.136 30.2546L118.166 34.5854ZM21.9544 30.9023L24.2961 40.7456L15.3827 42.8949L21.9544 30.9023ZM38.2242 42.4084C38.5338 42.3338 38.8259 42.1984 39.0836 42.0101C39.3413 41.8218 39.5597 41.5842 39.7262 41.3109C39.8928 41.0376 40.0042 40.7339 40.0541 40.4172C40.1041 40.1005 40.0916 39.777 40.0174 39.4651L33.8326 13.4593L68.9056 5.00054C69.7014 4.80774 70.5358 4.85499 71.3051 5.1364C72.0743 5.41781 72.7443 5.92094 73.2317 6.58311L82.6318 19.3638C82.8455 19.6544 83.1206 19.8935 83.4372 20.0639C83.7539 20.2343 84.1041 20.3317 84.4627 20.3491L110.783 21.6349C113.136 21.752 115.185 23.316 115.968 25.5152L111.927 26.49C108.783 27.2462 106.517 29.9356 106.29 33.1803L105.856 39.307C105.829 39.6897 105.892 40.0734 106.04 40.427C106.188 40.7807 106.416 41.0943 106.706 41.3424C106.997 41.5906 107.341 41.7663 107.712 41.8553C108.082 41.9443 108.469 41.9441 108.839 41.8547L119.295 39.3339L119.757 41.278L109.67 43.7099C106.271 42.5429 102.644 42.3709 99.131 43.2192C90.4065 45.3225 84.4479 53.1849 84.5448 62.0032L51.9718 69.8589C48.0865 61.9521 39.2403 57.6635 30.5211 59.7665C27.0021 60.6151 23.8443 62.4232 21.3424 65.0119L10.5809 67.6069L6.41138 50.0791L38.2242 42.4084ZM15.9349 78.5502L7.38015 80.6121L5.758 73.7908L17.418 70.979C16.4166 73.3746 15.9119 75.951 15.9349 78.5502ZM38.2467 92.2657C37.3429 92.484 36.4199 92.6119 35.4911 92.6477H34.3733C28.0695 92.3933 22.6434 87.9014 21.1716 81.7142C21.0486 81.1959 20.9544 80.6711 20.8895 80.1422C20.3791 76.0499 21.6644 71.933 24.4165 68.8469C26.3366 66.6915 28.8375 65.1941 31.6493 64.5159C38.68 62.8198 45.8259 66.6985 48.2697 73.5381C48.2747 73.5514 48.2807 73.5636 48.2854 73.5764C48.4592 74.0648 48.6064 74.5625 48.7264 75.0671C50.5449 82.7184 45.8449 90.4337 38.2467 92.2657ZM83.9956 86.8445L68.7748 82.5894C68.3612 82.4736 67.9244 82.4706 67.5093 82.5806C67.0941 82.6906 66.7154 82.9097 66.4119 83.2155L57.0462 92.6477H47.64C52.5252 88.222 54.982 81.373 53.5617 74.497L85.2123 66.8638C86.9556 73.3353 91.8402 78.1682 97.8011 80.0867L83.9956 86.8445ZM106.857 75.7184C99.2615 77.551 91.6017 72.8166 89.7823 65.1672C89.6591 64.6488 89.565 64.1239 89.5003 63.5949C88.6001 56.3822 93.2255 49.6649 100.261 47.9689C103.051 47.29 105.98 47.4869 108.656 48.5331C112.497 50.0269 115.494 53.1091 116.877 56.9897C116.89 57.0269 116.904 57.064 116.919 57.0998C117.082 57.5662 117.221 58.0407 117.335 58.5215C118.216 62.2273 117.612 66.0574 115.633 69.306C113.654 72.5536 110.537 74.831 106.857 75.7184Z" fill="#788A66"/>
</svg>
