<svg width="134" height="106" viewBox="0 0 134 106" fill="none" xmlns="http://www.w3.org/2000/svg">
<path d="M92.4081 65.8185L89.8471 61.0645C89.2237 59.9069 87.8424 59.5112 86.7631 60.179C86.5064 60.3379 86.2813 60.5495 86.1009 60.8015C85.9204 61.0536 85.788 61.3414 85.7113 61.6483C85.6346 61.9552 85.615 62.2753 85.6537 62.5904C85.6924 62.9054 85.7887 63.2092 85.9369 63.4843L88.4979 68.2383C88.6461 68.5135 88.8435 68.7548 89.0787 68.9483C89.3139 69.1417 89.5823 69.2837 89.8687 69.3659C90.1551 69.4482 90.4538 69.4691 90.7478 69.4276C91.0417 69.3861 91.3252 69.283 91.5819 69.1241C92.1005 68.8031 92.4788 68.2746 92.6338 67.6547C92.7887 67.0348 92.7075 66.3743 92.4081 65.8185Z" fill="#788A66"/>
<path d="M133.726 102.712L116.195 53.837C116.071 53.489 115.873 53.1767 115.617 52.9244C115.361 52.6721 115.054 52.4865 114.72 52.3823C114.386 52.278 114.034 52.2577 113.692 52.3231C113.35 52.3885 113.026 52.5378 112.746 52.7593L108.615 56.033L92.8841 26.8285C92.6859 26.4607 92.4009 26.1553 92.0576 25.9429C91.7144 25.7306 91.3251 25.6188 90.9288 25.6188C90.5325 25.6188 90.1432 25.7306 89.7999 25.9429C89.4567 26.1553 89.1717 26.4607 88.9735 26.8285L80.1882 43.1367L67.7041 19.9662C67.5059 19.5985 67.2209 19.293 66.8778 19.0807C66.5346 18.8683 66.1453 18.7564 65.749 18.7563C65.3528 18.7564 64.9635 18.8683 64.6203 19.0806C64.2771 19.293 63.9921 19.5984 63.794 19.9662L50.5098 44.6285L47.567 39.1652L47.5668 39.1646V39.1644L43.0457 30.7765C42.8474 30.4089 42.5624 30.1037 42.2192 29.8915C41.876 29.6794 41.4868 29.5677 41.0907 29.5678C40.6945 29.5678 40.3053 29.6796 39.9622 29.8918C39.6191 30.1041 39.3341 30.4094 39.1359 30.777L0.57021 102.371C0.372207 102.739 0.268004 103.156 0.268066 103.58C0.268129 104.005 0.372456 104.422 0.570568 104.79C0.76868 105.158 1.0536 105.463 1.39671 105.676C1.73982 105.888 2.12905 106 2.52528 106H22.8249C23.1214 106 23.415 105.938 23.6889 105.816C23.9628 105.694 24.2117 105.516 24.4213 105.292C24.6309 105.067 24.7972 104.8 24.9107 104.507C25.0241 104.213 25.0825 103.898 25.0824 103.581C25.0825 103.263 25.0241 102.948 24.9107 102.655C24.7972 102.361 24.6309 102.094 24.4213 101.87C24.2117 101.645 23.9628 101.467 23.6889 101.345C23.415 101.224 23.1214 101.161 22.8249 101.161H6.43542L29.8983 57.6037L36.3275 64.4942C36.7682 64.9666 37.346 65.2029 37.9237 65.2029C38.5015 65.2029 39.0792 64.9668 39.52 64.4942L43.9507 59.7455L54.6386 61.9737L57.876 67.9843C58.0242 68.2596 58.2215 68.5008 58.4568 68.6943C58.692 68.8878 58.9605 69.0297 59.2469 69.1119C59.5333 69.194 59.832 69.2149 60.126 69.1733C60.4199 69.1317 60.7033 69.0283 60.96 68.8692C61.4785 68.5482 61.8568 68.0197 62.0117 67.3998C62.1666 66.7799 62.0854 66.1194 61.7859 65.5637L53.1162 49.4681L58.0697 40.2724L66.5389 48.2917C66.951 48.6829 67.4827 48.8986 68.0332 48.8978C68.3298 48.8982 68.6235 48.8358 68.8975 48.7141C69.1715 48.5925 69.4204 48.4141 69.63 48.1891L74.7436 42.7085L81.4742 55.2004C81.6223 55.4757 81.8196 55.717 82.0549 55.9105C82.2901 56.104 82.5586 56.246 82.845 56.3282C83.1314 56.4105 83.4302 56.4314 83.7242 56.3899C84.0182 56.3484 84.3016 56.2451 84.5584 56.0861C85.0769 55.7652 85.4553 55.2367 85.6102 54.6168C85.7652 53.9968 85.684 53.3364 85.3845 52.7806L82.7954 47.9751L90.9285 32.8777L104.96 58.9274L102.362 60.9853C101.979 61.288 101.696 61.7123 101.551 62.1979C101.407 62.6835 101.41 63.2054 101.559 63.6893C101.708 64.1733 101.995 64.5944 102.381 64.8928C102.766 65.1912 103.23 65.3515 103.705 65.3508C104.188 65.3512 104.657 65.185 105.045 64.8771L113.045 58.5398L128.332 101.16H111.446L105.683 90.4597C105.381 89.9084 104.889 89.5072 104.312 89.3438C103.736 89.1803 103.122 89.2678 102.606 89.5872C102.09 89.9066 101.712 90.4319 101.556 91.0486C101.399 91.6652 101.477 92.3231 101.772 92.8787L106.232 101.16H31.8555C31.559 101.16 31.2655 101.223 30.9916 101.344C30.7176 101.466 30.4688 101.644 30.2591 101.869C30.0495 102.094 29.8832 102.36 29.7698 102.654C29.6563 102.947 29.598 103.262 29.598 103.58C29.598 103.898 29.6563 104.212 29.7698 104.506C29.8832 104.799 30.0495 105.066 30.2591 105.291C30.4688 105.515 30.7176 105.694 30.9916 105.815C31.2655 105.937 31.559 105.999 31.8555 105.999H131.619C131.985 105.999 132.346 105.904 132.67 105.721C132.994 105.538 133.272 105.274 133.479 104.95C133.687 104.627 133.818 104.254 133.861 103.864C133.904 103.474 133.857 103.079 133.726 102.712ZM43.6347 54.7496C43.2719 54.6739 42.8973 54.6949 42.5438 54.8107C42.1903 54.9265 41.8687 55.1336 41.6074 55.4138L37.924 59.3615L32.2355 53.2647L41.0912 36.8248L43.6564 41.5836V41.5839L48.5712 50.7082C48.5775 50.7191 48.5829 50.7308 48.5892 50.7417L51.6473 56.4195L43.6347 54.7496ZM67.9382 43.1593L60.3731 35.9961L65.7493 26.0152L72.406 38.3703L67.9382 43.1593Z" fill="#788A66"/>
<path d="M98.4538 0C86.6211 0 76.995 10.3171 76.995 22.9987C76.995 26.2771 77.6262 29.4445 78.8705 32.4141C79.1196 32.9932 79.572 33.4434 80.1292 33.6669C80.6864 33.8905 81.3034 33.8693 81.8461 33.6079C82.3888 33.3466 82.8133 32.8662 83.0273 32.2712C83.2414 31.6763 83.2276 31.0148 82.9891 30.4306C82.0077 28.0891 81.51 25.5885 81.51 22.9987C81.51 12.9853 89.1108 4.83903 98.4538 4.83903C107.797 4.83903 115.398 12.9853 115.398 22.9987C115.398 30.1205 111.484 36.6191 105.427 39.5544C104.957 39.7827 104.574 40.1766 104.342 40.6706C104.11 41.1646 104.043 41.7289 104.152 42.2694C104.261 42.81 104.539 43.2944 104.941 43.6418C105.342 43.9893 105.843 44.1789 106.359 44.1792C106.679 44.179 106.996 44.1055 107.288 43.9635C114.957 40.2469 119.913 32.0173 119.913 22.9984C119.913 10.3169 110.287 0 98.4538 0Z" fill="#788A66"/>
</svg>
