<svg width="17" height="17" viewBox="0 0 17 17" fill="none" xmlns="http://www.w3.org/2000/svg">
<path d="M13.8879 7.13449C13.9077 4.73771 11.9278 2.54049 9.4745 2.23665C9.4257 2.23069 9.37255 2.22161 9.31628 2.212C9.19482 2.19125 9.06922 2.16992 8.94249 2.16992C8.43967 2.16992 8.30526 2.5341 8.26988 2.7513C8.23547 2.96248 8.26829 3.13982 8.36727 3.27861C8.53378 3.51207 8.82677 3.55352 9.0621 3.58672C9.13107 3.59654 9.19615 3.60568 9.25064 3.6183C11.4549 4.12613 12.1971 4.92455 12.5598 7.17794C12.5686 7.233 12.5726 7.30084 12.5769 7.3728C12.5927 7.64216 12.6257 8.20258 13.21 8.20258H13.2101C13.2587 8.20258 13.311 8.19825 13.3654 8.1897C13.9096 8.10443 13.8925 7.59217 13.8843 7.34604C13.882 7.27672 13.8798 7.21114 13.8855 7.16754C13.887 7.15656 13.8878 7.14552 13.8879 7.13449Z" fill="#FEFDFA"/>
<path d="M8.79978 1.35619C8.86506 1.36105 8.92687 1.3657 8.97833 1.37383C12.5979 1.94776 14.2625 3.71597 14.7237 7.47718C14.7316 7.54111 14.7328 7.61909 14.7341 7.70166C14.7387 7.99552 14.7482 8.60683 15.3849 8.6195L15.4047 8.61971C15.6043 8.61971 15.7632 8.55763 15.8768 8.43504C16.075 8.22127 16.0612 7.90371 16.05 7.6485C16.0473 7.58588 16.0447 7.52691 16.0454 7.47528C16.0914 3.62854 12.862 0.140329 9.1345 0.0106118C9.11903 0.0100838 9.10429 0.0109285 9.08939 0.0130931C9.07475 0.0149957 9.06 0.0158249 9.04525 0.0155745C9.00808 0.0155745 8.96235 0.0122484 8.91386 0.00886954C8.85523 0.00475154 8.78877 0 8.72139 0C8.12778 0 8.01493 0.43503 8.00049 0.694358C7.96721 1.29369 8.52953 1.33587 8.79978 1.35619ZM14.5491 12.3383C14.4713 12.2776 14.3943 12.2159 14.3181 12.1531C13.9229 11.8252 13.5024 11.523 13.0958 11.2306C13.0114 11.1701 12.9272 11.1094 12.843 11.0485C12.3221 10.6713 11.8539 10.488 11.4115 10.488C10.8156 10.488 10.2961 10.8275 9.86733 11.4969C9.67736 11.7936 9.44689 11.9379 9.16286 11.9379C8.99492 11.9379 8.80408 11.8885 8.59573 11.791C6.91456 11.0049 5.71409 9.79973 5.0276 8.20886C4.69575 7.43996 4.80333 6.93735 5.38736 6.5283C5.719 6.29621 6.33632 5.86414 6.29259 5.03674C6.24307 4.09715 4.23241 1.27003 3.38524 0.948935C3.02656 0.812935 2.6497 0.811668 2.26311 0.945767C1.28921 1.28334 0.590335 1.87617 0.241842 2.66007C-0.0949249 3.41752 -0.0797174 4.3069 0.285826 5.23208C1.34257 7.90698 2.8283 10.2391 4.70189 12.1637C6.53581 14.0476 8.78985 15.5908 11.4013 16.7502C11.6367 16.8547 11.8836 16.9116 12.0639 16.9532C12.1254 16.9674 12.1784 16.9796 12.2171 16.9905C12.2383 16.9965 12.2602 16.9997 12.2822 16.9999L12.3028 17H12.3029C13.5312 17 15.006 15.8427 15.459 14.5234C15.8558 13.3681 15.1313 12.7971 14.5491 12.3383ZM9.34305 4.41175C9.13276 4.41724 8.69512 4.42843 8.54156 4.88801C8.46972 5.10278 8.47832 5.28925 8.56716 5.44225C8.69753 5.66674 8.9473 5.73553 9.17449 5.77328C9.99841 5.90959 10.4216 6.37936 10.5062 7.25153C10.5455 7.65821 10.8111 7.9422 11.1521 7.9422C11.1773 7.9422 11.2031 7.94066 11.2288 7.93744C11.6389 7.88713 11.8377 7.57643 11.8198 7.01406C11.8263 6.42714 11.5284 5.76082 11.0218 5.23007C10.5134 4.69769 9.90051 4.39787 9.34305 4.41175Z" fill="#FEFDFA"/>
</svg>
