<svg width="20" height="17" viewBox="0 0 20 17" fill="none" xmlns="http://www.w3.org/2000/svg">
<path d="M0.440722 8.23313L5.04076 9.79529L15.963 3.11809C16.1216 3.02166 16.2837 3.23666 16.1473 3.36238L7.87864 10.9732L7.57149 15.2339C7.56648 15.3053 7.58327 15.3765 7.61966 15.4381C7.65605 15.4997 7.7103 15.5488 7.77523 15.5788C7.84016 15.6089 7.91269 15.6185 7.9832 15.6064C8.05372 15.5943 8.11889 15.561 8.17007 15.511L10.7158 13.0075L15.3701 16.5303C15.8716 16.9103 16.598 16.6425 16.733 16.0282L19.9737 1.31379C20.1587 0.474499 19.3359 -0.234079 18.5337 0.0730668L0.417865 7.01026C-0.150711 7.22812 -0.134997 8.03742 0.440722 8.23313Z" fill="#FEFDFA"/>
</svg>
