<svg width="24" height="24" viewBox="0 0 24 24" fill="none" xmlns="http://www.w3.org/2000/svg">
<path d="M20.8263 13.8416C21.3796 9.57619 20.5605 6.88335 19.0831 5.66539L19.0838 5.66468C16.6992 3.58472 8.6458 3.27687 5.79289 5.7581C4.5117 6.97182 4.06042 8.75312 4.01097 10.9583C3.96152 13.1643 3.90279 17.2966 8.10721 18.4176H8.11107L8.10721 20.1295C8.10721 20.1295 8.07862 20.8231 8.56235 20.9625C9.11562 21.1267 9.36599 20.8047 11.0869 18.9222C13.9645 19.1508 16.1745 18.6271 16.4256 18.5506C17.0067 18.3723 20.2947 17.9739 20.8263 13.8416ZM11.3704 17.7177C11.3704 17.7177 9.54913 19.7976 8.98271 20.3376C8.79726 20.5131 8.59403 20.4968 8.59712 20.1487C8.59712 19.9201 8.61103 17.3065 8.61103 17.3065C5.04643 16.3709 5.25661 12.8522 5.29525 11.0114C5.33388 9.16996 5.7017 7.66183 6.78662 6.64627C9.28949 4.49696 16.3499 4.97749 18.1488 6.52596C20.348 8.31151 19.5652 13.3561 19.5699 13.528C19.1178 16.9774 16.4535 17.1961 15.9636 17.3454C15.7541 17.4091 13.8107 17.867 11.3704 17.7177Z" fill="#FEFDFA"/>
<path d="M12.378 7.05029C12.0805 7.05029 12.0805 7.47492 12.378 7.47846C14.6861 7.49473 16.587 8.96819 16.6079 11.6709C16.6079 11.9561 17.0638 11.9526 17.0599 11.6674C17.0352 8.75516 14.9589 7.06657 12.378 7.05029Z" fill="#FEFDFA"/>
<path d="M15.4142 11.2231C15.4072 11.5048 15.8624 11.5182 15.8662 11.233C15.9041 9.62725 14.823 8.30454 12.7915 8.16512C12.494 8.14531 12.4631 8.57347 12.7599 8.59329C14.5217 8.71572 15.4497 9.81692 15.4142 11.2231ZM14.9274 13.0497C14.5456 12.8473 14.157 12.9733 13.9962 13.1722L13.6601 13.5706C13.4893 13.773 13.1702 13.7461 13.1702 13.7461C10.8412 13.1821 10.2184 10.95 10.2184 10.95C10.2184 10.95 10.1898 10.6478 10.403 10.4857L10.8234 10.1672C11.0336 10.0144 11.1665 9.64636 10.9524 9.28472C10.3806 8.33851 9.99658 8.01226 9.80108 7.76173C9.59553 7.52606 9.28644 7.47298 8.96498 7.63222H8.95803C8.28962 7.99032 7.55784 8.66052 7.79198 9.35054C8.19148 10.0781 8.92557 12.3972 11.2654 14.1495C12.365 14.9782 14.1052 15.8275 14.8439 16.0235L14.8509 16.0334C15.5788 16.2557 16.2866 15.5593 16.6645 14.9287V14.9237C16.8321 14.6187 16.7765 14.33 16.5316 14.141C16.0973 13.7532 15.442 13.325 14.9274 13.0497Z" fill="#FEFDFA"/>
<path d="M13.1098 9.74502C13.8524 9.78465 14.2125 10.1399 14.2511 10.8696C14.265 11.1548 14.7171 11.135 14.7032 10.8498C14.6537 9.89718 14.1113 9.3664 13.1345 9.31686C12.837 9.30058 12.8092 9.72875 13.1098 9.74502Z" fill="#FEFDFA"/>
</svg>
