<svg width="17" height="17" viewBox="0 0 17 17" fill="none" xmlns="http://www.w3.org/2000/svg">
<path d="M4.38843 15.9357C5.64752 16.6347 7.06412 17.001 8.50425 17C13.1975 17 17 13.189 17 8.49575C17 3.80254 13.1975 0 8.50425 0C3.81104 0 0 3.80254 0 8.49575C0 10.0051 0.395857 11.4076 1.08071 12.6365L0 17L4.38843 15.9357ZM4.85836 4.743C4.95735 4.65036 5.07738 4.58317 5.20811 4.54721C5.33883 4.51125 5.47634 4.5076 5.60879 4.53657L5.88139 4.59425C6.15339 4.65193 6.37621 4.83347 6.48307 5.08118L7.01918 6.26875C7.08422 6.41159 7.1064 6.57024 7.08301 6.72544C7.05962 6.88064 6.99168 7.02571 6.88743 7.14304L6.55775 7.531C6.50409 7.59403 6.47064 7.67175 6.46176 7.75404C6.45288 7.83634 6.46898 7.91941 6.50796 7.99243C7.48121 9.741 8.75986 10.3105 9.32875 10.4835C9.41072 10.51 9.49922 10.5082 9.58004 10.4784C9.66085 10.4485 9.7293 10.3924 9.77439 10.319L10.0136 9.94743C10.2443 9.59286 10.6985 9.469 11.2012 9.71671L12.1908 10.2115C12.5709 10.3931 12.7433 10.8381 12.6037 11.2346C12.1004 12.6941 10.8138 12.5126 10.8138 12.5126C7.96025 12.4385 5.72414 9.80718 4.75939 8.45446C4.31375 7.81939 4.04175 7.05196 4.12432 6.26875C4.20689 5.49343 4.56936 5.0065 4.85836 4.743Z" fill="#FEFDFA"/>
</svg>
